<svg xmlns="http://www.w3.org/2000/svg" width="87.919" height="87.999" viewBox="0 0 87.919 87.999">
  <defs>
    <style>
      .cls-1 {
        fill: #fff;
      }
    </style>
  </defs>
  <g id="destination" transform="translate(-0.233)">
    <g id="Grupo_14" data-name="Grupo 14" transform="translate(0.233 26.452)">
      <g id="Grupo_13" data-name="Grupo 13">
        <path id="Trazado_112" data-name="Trazado 112" class="cls-1" d="M21.809,153.9A21.6,21.6,0,0,0,.233,175.478c0,7.387,3.514,15.329,10.444,23.605,1.03,1.23,2.056,2.369,3.04,3.409-4.475,1.221-7.161,3.416-7.161,5.977,0,4.534,7.858,6.98,15.252,6.98s15.252-2.447,15.252-6.98c0-2.559-2.686-4.754-7.157-5.976a70.25,70.25,0,0,0,5.533-6.58,1.29,1.29,0,1,0-2.078-1.531,69.285,69.285,0,0,1-6.665,7.7,1.29,1.29,0,0,0-.563.558c-1.863,1.831-3.431,3.189-4.321,3.931-.88-.735-2.424-2.075-4.263-3.882a1.291,1.291,0,0,0-.647-.643c-5.845-5.879-14.086-16.036-14.086-26.57a19,19,0,0,1,37.991,0c0,4.574-1.559,9.514-4.632,14.682a1.29,1.29,0,0,0,2.218,1.319c3.314-5.573,4.995-10.956,4.995-16A21.6,21.6,0,0,0,21.809,153.9Zm-.79,55.355a1.291,1.291,0,0,0,1.58,0,65.594,65.594,0,0,0,5.189-4.614c4.352.888,6.692,2.6,6.692,3.827,0,.919-1.259,2-3.286,2.828a25.726,25.726,0,0,1-9.385,1.571c-7.735,0-12.672-2.606-12.672-4.4,0-1.232,2.341-2.94,6.7-3.827A65.583,65.583,0,0,0,21.019,209.257Z" transform="translate(-0.233 -153.902)"/>
      </g>
    </g>
    <g id="Grupo_16" data-name="Grupo 16" transform="translate(12.428 38.646)">
      <g id="Grupo_15" data-name="Grupo 15">
        <path id="Trazado_113" data-name="Trazado 113" class="cls-1" d="M80.568,224.854a9.3,9.3,0,0,0-5.613,1.863,1.29,1.29,0,1,0,1.545,2.067,6.783,6.783,0,1,1-2.47,3.571,1.29,1.29,0,1,0-2.48-.712,9.382,9.382,0,1,0,9.018-6.789Z" transform="translate(-71.187 -224.854)"/>
      </g>
    </g>
    <g id="Grupo_18" data-name="Grupo 18" transform="translate(54.389 0)">
      <g id="Grupo_17" data-name="Grupo 17" transform="translate(0 0)">
        <path id="Trazado_114" data-name="Trazado 114" class="cls-1" d="M338.982,37.489c.657-.7,1.333-1.463,2.011-2.274,5.372-6.417,8.1-12.585,8.1-18.334a16.884,16.884,0,0,0-32.435-6.571,1.29,1.29,0,1,0,2.377,1.005,14.3,14.3,0,0,1,27.478,5.566c0,10.664-11.2,20.88-14.3,23.508-.684-.578-1.762-1.525-3.025-2.763a1.289,1.289,0,0,0-.574-.57c-4.456-4.486-10.7-12.2-10.7-20.174a1.29,1.29,0,0,0-2.581,0c0,5.749,2.724,11.918,8.1,18.334.678.81,1.354,1.568,2.01,2.273-3.326,1-5.247,2.7-5.247,4.749,0,1.728,1.4,3.25,3.947,4.287a24.377,24.377,0,0,0,16.15,0c2.545-1.037,3.946-2.56,3.946-4.287C344.229,40.193,342.307,38.49,338.982,37.489Zm-6.774,7.831c-6.108,0-9.44-2.036-9.44-3.083,0-.682,1.516-1.929,4.752-2.617a50.416,50.416,0,0,0,3.9,3.459,1.291,1.291,0,0,0,1.58,0,50.368,50.368,0,0,0,3.9-3.459,11.828,11.828,0,0,1,3.565,1.29c.743.453,1.187.949,1.187,1.327C341.648,43.284,338.316,45.32,332.208,45.32Z" transform="translate(-315.327 0)"/>
      </g>
    </g>
    <g id="Grupo_20" data-name="Grupo 20" transform="translate(63.762 9.373)">
      <g id="Grupo_19" data-name="Grupo 19">
        <path id="Trazado_115" data-name="Trazado 115" class="cls-1" d="M377.368,54.532a7.509,7.509,0,1,0,7.509,7.509A7.517,7.517,0,0,0,377.368,54.532Zm0,12.437a4.928,4.928,0,1,1,4.928-4.928A4.933,4.933,0,0,1,377.368,66.969Z" transform="translate(-369.859 -54.532)"/>
      </g>
    </g>
    <g id="Grupo_22" data-name="Grupo 22" transform="translate(51.541 40.947)">
      <g id="Grupo_21" data-name="Grupo 21">
        <path id="Trazado_116" data-name="Trazado 116" class="cls-1" d="M301.744,238.239h-.589a9.735,9.735,0,0,0-1.282.085,1.291,1.291,0,1,0,.34,2.558,7.176,7.176,0,0,1,.942-.062h.589a1.291,1.291,0,0,0,0-2.581Z" transform="translate(-298.753 -238.239)"/>
      </g>
    </g>
    <g id="Grupo_24" data-name="Grupo 24" transform="translate(47.271 79.663)">
      <g id="Grupo_23" data-name="Grupo 23">
        <path id="Trazado_117" data-name="Trazado 117" class="cls-1" d="M276.906,463.5H276.9l-1.7.008a1.29,1.29,0,0,0,.006,2.581h.006l1.7-.008a1.29,1.29,0,0,0-.006-2.581Z" transform="translate(-273.911 -463.496)"/>
      </g>
    </g>
    <g id="Grupo_26" data-name="Grupo 26" transform="translate(53.068 57.662)">
      <g id="Grupo_25" data-name="Grupo 25">
        <path id="Trazado_118" data-name="Trazado 118" class="cls-1" d="M310.637,335.489h-1.7a1.29,1.29,0,1,0,0,2.581h1.7a1.29,1.29,0,0,0,0-2.581Z" transform="translate(-307.642 -335.489)"/>
      </g>
    </g>
    <g id="Grupo_28" data-name="Grupo 28" transform="translate(45.859 43.161)">
      <g id="Grupo_27" data-name="Grupo 27">
        <path id="Trazado_119" data-name="Trazado 119" class="cls-1" d="M269.064,251.535a1.291,1.291,0,0,0-1.823-.074,9.7,9.7,0,0,0-1.3,1.47,1.291,1.291,0,1,0,2.1,1.506,7.132,7.132,0,0,1,.954-1.078A1.29,1.29,0,0,0,269.064,251.535Z" transform="translate(-265.698 -251.12)"/>
      </g>
    </g>
    <g id="Grupo_30" data-name="Grupo 30" transform="translate(54.089 79.631)">
      <g id="Grupo_29" data-name="Grupo 29">
        <path id="Trazado_120" data-name="Trazado 120" class="cls-1" d="M316.573,463.314h-.006l-1.7.008a1.29,1.29,0,0,0,.006,2.581h.006l1.7-.008a1.29,1.29,0,0,0-.006-2.581Z" transform="translate(-313.578 -463.314)"/>
      </g>
    </g>
    <g id="Grupo_32" data-name="Grupo 32" transform="translate(40.454 79.693)">
      <g id="Grupo_31" data-name="Grupo 31">
        <path id="Trazado_121" data-name="Trazado 121" class="cls-1" d="M237.241,463.675h-.006l-1.7.008a1.29,1.29,0,0,0,.006,2.581h.006l1.7-.008a1.29,1.29,0,0,0-.006-2.581Z" transform="translate(-234.246 -463.675)"/>
      </g>
    </g>
    <g id="Grupo_34" data-name="Grupo 34" transform="translate(46.861 55.329)">
      <g id="Grupo_33" data-name="Grupo 33">
        <path id="Trazado_122" data-name="Trazado 122" class="cls-1" d="M274.841,323.166a7.12,7.12,0,0,1-1.133-.887,1.29,1.29,0,1,0-1.789,1.86,9.7,9.7,0,0,0,1.545,1.21,1.29,1.29,0,1,0,1.377-2.183Z" transform="translate(-271.523 -321.919)"/>
      </g>
    </g>
    <g id="Grupo_36" data-name="Grupo 36" transform="translate(44.295 49.218)">
      <g id="Grupo_35" data-name="Grupo 35">
        <path id="Trazado_123" data-name="Trazado 123" class="cls-1" d="M259.308,289.1a7.132,7.132,0,0,1-.131-1.36v-.072a1.29,1.29,0,0,0-1.275-1.305h-.015a1.29,1.29,0,0,0-1.29,1.275v.1a9.718,9.718,0,0,0,.178,1.854,1.29,1.29,0,0,0,2.533-.494Z" transform="translate(-256.597 -286.361)"/>
      </g>
    </g>
    <g id="Grupo_38" data-name="Grupo 38" transform="translate(59.886 57.662)">
      <g id="Grupo_37" data-name="Grupo 37">
        <path id="Trazado_124" data-name="Trazado 124" class="cls-1" d="M350.3,335.489h-1.7a1.29,1.29,0,1,0,0,2.581h1.7a1.29,1.29,0,1,0,0-2.581Z" transform="translate(-347.309 -335.489)"/>
      </g>
    </g>
    <g id="Grupo_40" data-name="Grupo 40" transform="translate(80.095 59.063)">
      <g id="Grupo_39" data-name="Grupo 39">
        <path id="Trazado_125" data-name="Trazado 125" class="cls-1" d="M468.392,344.87a12.285,12.285,0,0,0-1.58-1.059,1.29,1.29,0,1,0-1.267,2.248,9.733,9.733,0,0,1,1.247.836,1.291,1.291,0,0,0,1.6-2.026Z" transform="translate(-464.888 -343.645)"/>
      </g>
    </g>
    <g id="Grupo_42" data-name="Grupo 42" transform="translate(74.541 79.442)">
      <g id="Grupo_41" data-name="Grupo 41">
        <path id="Trazado_126" data-name="Trazado 126" class="cls-1" d="M436.843,463.326a1.291,1.291,0,0,0-1.455-1.1,9.713,9.713,0,0,1-1.287.091h-.241a1.29,1.29,0,0,0,.006,2.581h.247a12.323,12.323,0,0,0,1.628-.115A1.29,1.29,0,0,0,436.843,463.326Z" transform="translate(-432.575 -462.212)"/>
      </g>
    </g>
    <g id="Grupo_44" data-name="Grupo 44" transform="translate(80.959 76.527)">
      <g id="Grupo_43" data-name="Grupo 43">
        <path id="Trazado_127" data-name="Trazado 127" class="cls-1" d="M473.462,445.651a1.29,1.29,0,0,0-1.824-.044,9.745,9.745,0,0,1-1.165.949,1.291,1.291,0,1,0,1.47,2.121,12.339,12.339,0,0,0,1.475-1.2A1.29,1.29,0,0,0,473.462,445.651Z" transform="translate(-469.918 -445.25)"/>
      </g>
    </g>
    <g id="Grupo_46" data-name="Grupo 46" transform="translate(85.041 70.638)">
      <g id="Grupo_45" data-name="Grupo 45">
        <path id="Trazado_128" data-name="Trazado 128" class="cls-1" d="M495.641,411.01a1.291,1.291,0,0,0-1.507,1.029,9.666,9.666,0,0,1-.392,1.449,1.291,1.291,0,1,0,2.431.867,12.237,12.237,0,0,0,.5-1.838A1.291,1.291,0,0,0,495.641,411.01Z" transform="translate(-493.667 -410.987)"/>
      </g>
    </g>
    <g id="Grupo_48" data-name="Grupo 48" transform="translate(84.654 63.982)">
      <g id="Grupo_47" data-name="Grupo 47">
        <path id="Trazado_129" data-name="Trazado 129" class="cls-1" d="M494.54,374.795a12.184,12.184,0,0,0-.668-1.785,1.29,1.29,0,1,0-2.339,1.091,9.591,9.591,0,0,1,.526,1.405,1.29,1.29,0,1,0,2.481-.712Z" transform="translate(-491.412 -372.265)"/>
      </g>
    </g>
    <g id="Grupo_50" data-name="Grupo 50" transform="translate(66.704 57.662)">
      <g id="Grupo_49" data-name="Grupo 49">
        <path id="Trazado_130" data-name="Trazado 130" class="cls-1" d="M389.97,335.489h-1.7a1.29,1.29,0,1,0,0,2.581h1.7a1.29,1.29,0,0,0,0-2.581Z" transform="translate(-386.975 -335.489)"/>
      </g>
    </g>
    <g id="Grupo_52" data-name="Grupo 52" transform="translate(60.906 79.6)">
      <g id="Grupo_51" data-name="Grupo 51">
        <path id="Trazado_131" data-name="Trazado 131" class="cls-1" d="M356.238,463.134h-.006l-1.7.008a1.29,1.29,0,0,0,.006,2.581h.006l1.7-.008a1.29,1.29,0,0,0-.006-2.581Z" transform="translate(-353.243 -463.134)"/>
      </g>
    </g>
    <g id="Grupo_54" data-name="Grupo 54" transform="translate(73.521 57.662)">
      <g id="Grupo_53" data-name="Grupo 53">
        <path id="Trazado_132" data-name="Trazado 132" class="cls-1" d="M429.692,335.5c-.182-.008-.367-.012-.549-.012H427.93a1.29,1.29,0,1,0,0,2.581h1.212q.219,0,.435.01h.058a1.29,1.29,0,0,0,.056-2.579Z" transform="translate(-426.64 -335.49)"/>
      </g>
    </g>
    <g id="Grupo_56" data-name="Grupo 56" transform="translate(67.723 79.57)">
      <g id="Grupo_55" data-name="Grupo 55">
        <path id="Trazado_133" data-name="Trazado 133" class="cls-1" d="M395.9,462.955H395.9l-1.7.008a1.29,1.29,0,0,0,.006,2.581h.006l1.7-.008a1.29,1.29,0,0,0-.006-2.581Z" transform="translate(-392.908 -462.955)"/>
      </g>
    </g>
  </g>
</svg>
